<?xml version="1.0" encoding="UTF-8"?>
<svg width="21px" height="21px" viewBox="0 0 21 21" version="1.1" xmlns="http://www.w3.org/2000/svg" xmlns:xlink="http://www.w3.org/1999/xlink">
    <title>Delete@1.5x</title>
    <g id="Styleguide" stroke="none" stroke-width="1" fill="none" fill-rule="evenodd">
        <g id="Styleguide_1" transform="translate(-141, -1462)">
            <g id="Delete" transform="translate(141, 1462)">
                <rect id="Rectangle-Copy-14" fill="#D8D8D8" opacity="0" x="0" y="0" width="21" height="21"></rect>
                <g id="" transform="translate(4, 3)" fill="#FF2121" fill-rule="nonzero">
                    <path d="M12.5357147,1.875 C12.7910715,1.875 13,2.08476573 13,2.34375 C13,2.60273427 12.7910715,2.8125 12.5357147,2.8125 L12.0046883,2.8125 L11.2647329,13.2597658 C11.1979913,14.2412111 10.3622774,15 9.41339312,15 L3.58660776,15 C2.61189805,15 1.80346053,14.2412111 1.73381741,13.2597658 L0.995022569,2.8125 L0.464285714,2.8125 C0.207883971,2.8125 0,2.60273427 0,2.34375 C0,2.08476573 0.207883971,1.875 0.464285714,1.875 L3.22388411,1.875 L3.97544687,0.660937428 C4.2308041,0.249785185 4.67767893,0 5.15647357,0 L7.84352687,0 C8.32232152,0 8.76919723,0.249785185 8.99843812,0.660937428 L9.77611634,1.875 L12.5357147,1.875 Z M5.15647357,0.9375 C4.99687535,0.9375 4.84888455,1.02070302 4.7647325,1.15781218 L4.32075919,1.875 L8.67924169,1.875 L8.23526795,1.15781218 C8.15111634,1.02070302 8.00312509,0.9375 7.84352687,0.9375 L5.15647357,0.9375 Z M11.0732153,2.8125 L1.92591548,2.8125 L2.66006735,13.1923825 C2.69488914,13.6816406 3.09910812,14.0625 3.58660821,14.0625 L9.41339357,14.0625 C9.9008941,14.0625 10.3042421,13.6816406 10.339063,13.1923825 L11.0732153,2.8125 L11.0732153,2.8125 Z" id="Shape"></path>
                </g>
            </g>
        </g>
    </g>
</svg>