<?xml version="1.0" encoding="UTF-8"?>
<svg viewBox="0 0 21 21" version="1.1" xmlns="http://www.w3.org/2000/svg" xmlns:xlink="http://www.w3.org/1999/xlink">
    <title>Add Copy@1.5x</title>
    <g id="Styleguide" stroke="none" stroke-width="1" fill="none" fill-rule="evenodd">
        <g id="Styleguide_1" transform="translate(-219, -1462)">
            <g id="Add-Copy" transform="translate(219, 1462)">
                <rect id="Rectangle-Copy-14" fill="#D8D8D8" opacity="0" x="0" y="0" width="21" height="21"></rect>
                <g id="" transform="translate(4, 4)" fill="#000000" fill-rule="nonzero">
                    <path d="M12.5824898,1.50040741 C13.1391701,2.05629017 13.1391701,2.9568355 12.5824898,3.51348075 L4.63391691,11.4641061 C4.34413821,11.7513246 3.98826991,11.9622912 3.59681494,12.0792115 L0.521604602,12.9840782 C0.378749025,13.0247465 0.224378492,12.9866201 0.119143169,12.8798658 C0.0138977619,12.7756543 -0.0254663361,12.6206068 0.0165414542,12.4782681 L0.920940225,9.40273866 C1.03608901,9.0113078 1.24783069,8.65546142 1.53633835,8.36570095 L9.4864363,0.416855055 C10.0431158,-0.138951685 10.9429541,-0.138951685 11.4996336,0.416855055 L12.5824902,1.50040741 L12.5824898,1.50040741 Z M8.66793892,2.38493953 L10.615047,4.30905205 L12.0080169,2.93904364 C12.2469569,2.7001176 12.2469569,2.31377056 12.0080169,2.07560779 L10.9251604,0.992055436 C10.6862204,0.753892661 10.2998495,0.753892661 10.0609088,0.992055436 L8.66793892,2.38493953 Z M8.09346566,2.95937741 L2.11157416,8.94267997 C1.9191509,9.13331196 1.77807446,9.37223723 1.70130848,9.63403896 L1.00736523,11.9927918 L3.36550078,11.2988917 C3.62731825,11.2226389 3.86625862,11.0803002 4.05690235,10.8871263 L10.0176963,4.90636562 L8.09346527,2.95937741 L8.09346566,2.95937741 Z" id="Shape"></path>
                </g>
            </g>
        </g>
    </g>
</svg>