<?xml version="1.0" encoding="UTF-8"?>
<svg viewBox="0 0 21 21" version="1.1" xmlns="http://www.w3.org/2000/svg" xmlns:xlink="http://www.w3.org/1999/xlink">
    <title>Group 5</title>
    <g id="Styleguide" stroke="none" stroke-width="1" fill="none" fill-rule="evenodd">
        <g id="Styleguide_1" transform="translate(-258, -1462)">
            <g id="Group-5" transform="translate(258, 1462)">
                <rect id="Rectangle-Copy-14" fill="#D8D8D8" opacity="0" x="0" y="0" width="21" height="21"></rect>
                <path d="M2,4.59090909 C2,4.26443195 2.27184827,4 2.60714286,4 L18.3928571,4 C18.7267853,4 19,4.26443195 19,4.59090909 C19,4.91738623 18.7267853,5.18181818 18.3928571,5.18181818 L2.60714286,5.18181818 C2.27184827,5.18181818 2,4.91738623 2,4.59090909 Z M2,10.5 C2,10.1749999 2.27184827,9.90909091 2.60714286,9.90909091 L18.3928571,9.90909091 C18.7267853,9.90909091 19,10.1749999 19,10.5 C19,10.8250001 18.7267853,11.0909091 18.3928571,11.0909091 L2.60714286,11.0909091 C2.27184827,11.0909091 2,10.8250001 2,10.5 Z M18.3928571,17 L2.60714286,17 C2.27184827,17 2,16.7340905 2,16.4090909 C2,16.0840914 2.27184827,15.8181818 2.60714286,15.8181818 L18.3928571,15.8181818 C18.7267853,15.8181818 19,16.0840914 19,16.4090909 C19,16.7340905 18.7267853,17 18.3928571,17 Z" id="Shape" fill="#000000" fill-rule="nonzero"></path>
            </g>
        </g>
    </g>
</svg>