<?xml version="1.0" encoding="UTF-8"?>
<svg viewBox="0 0 21 21" version="1.1" xmlns="http://www.w3.org/2000/svg" xmlns:xlink="http://www.w3.org/1999/xlink">
    <title>Upload@1.5x</title>
    <g id="Styleguide" stroke="none" stroke-width="1" fill="none" fill-rule="evenodd">
        <g id="Styleguide_1" transform="translate(-24, -1462)">
            <g id="Upload" transform="translate(24, 1462)">
                <rect id="Rectangle-Copy-14" fill="#D8D8D8" opacity="0" x="0" y="0" width="21" height="21"></rect>
                <path d="M10.2058062,8.12654874 C10.367222,7.95781709 10.6327781,7.95781709 10.7941939,8.12654874 L12.8769848,10.2691663 C13.0410051,10.4352191 13.0410051,10.7084033 12.8769848,10.8744557 C12.715569,11.0431873 12.4500128,11.0431873 12.288597,10.8744557 L10.9165582,9.46300656 L10.9165582,13.5714764 C10.9165582,13.8071641 10.7291067,14 10.5,14 C10.2708934,14 10.0834419,13.8071641 10.0834419,13.5714764 L10.0834419,9.46300656 L8.71140347,10.8744557 C8.54998726,11.0431873 8.28443111,11.0431873 8.1230149,10.8744557 C7.95899503,10.7084033 7.95899503,10.4352191 8.1230149,10.2691663 L10.2058062,8.12654874 Z M9.225,5 C10.8054687,5 12.2026564,5.79151753 13.05,7.0035711 C13.4351562,6.8179463 13.8681247,6.71428571 14.325,6.71428571 C15.9692194,6.71428571 17.3,8.05625016 17.3,9.71428571 C17.3,10.0008928 17.2601563,10.2526787 17.1857816,10.5392858 C18.2642184,11.1125003 19,12.2562498 19,13.5714286 C19,15.4651789 17.4779691,17 15.6,17 L5.825,17 C3.71248441,17 2,15.2723214 2,13.1428571 C2,11.4607146 3.06648462,10.0330356 4.55451598,9.50267873 C4.66421924,6.99821445 6.71218774,5 9.22500041,5 L9.225,5 Z M9.25000079,6 C7.23437595,6 5.59114663,7.58854167 5.50260512,9.58072917 C5.48958389,9.92187516 5.26822972,10.1953127 4.94791714,10.3307292 C3.81197937,10.7317708 3,11.8125003 3,13.0833333 C3,14.6953123 4.30572915,16 5.91666667,16 L15.5,16 C16.8802083,16 18,14.8802083 18,13.5 C18,12.541667 17.4609372,11.7083337 16.6666663,11.2890627 C16.317709,11.0807293 16.145833,10.7005208 16.2526048,10.2994793 C16.3046881,10.140625 16.3333333,9.95052075 16.3333333,9.75 C16.3333333,8.59895802 15.401042,7.66666667 14.25,7.66666667 C13.9296878,7.66666667 13.6276043,7.73958302 13.3567712,7.86718782 C12.9921878,8.04166651 12.552083,7.92447901 12.317708,7.59375032 C11.6380212,6.62812487 10.5182295,6 9.25,6 L9.25000079,6 Z" id="Shape" fill="#000000" fill-rule="nonzero"></path>
            </g>
        </g>
    </g>
</svg>